<?xml version="1.0" encoding="UTF-8" standalone="no"?>
<!-- Created with Inkscape (http://www.inkscape.org/) -->

<svg
   xmlns:dc="http://purl.org/dc/elements/1.1/"
   xmlns:cc="http://creativecommons.org/ns#"
   xmlns:rdf="http://www.w3.org/1999/02/22-rdf-syntax-ns#"
   xmlns:svg="http://www.w3.org/2000/svg"
   xmlns="http://www.w3.org/2000/svg"
   xmlns:sodipodi="http://sodipodi.sourceforge.net/DTD/sodipodi-0.dtd"
   xmlns:inkscape="http://www.inkscape.org/namespaces/inkscape"
   width="96px"
   height="96px"
   viewBox="0 0 96 96"
   version="1.1"
   id="SVGRoot"
   sodipodi:docname="sifty.svg"
   inkscape:version="0.92.2 (unknown)">
  <sodipodi:namedview
     id="base"
     pagecolor="#ffffff"
     bordercolor="#666666"
     borderopacity="1.0"
     inkscape:pageopacity="0.0"
     inkscape:pageshadow="2"
     inkscape:zoom="2.8284271"
     inkscape:cx="300.70464"
     inkscape:cy="-58.326164"
     inkscape:document-units="px"
     inkscape:current-layer="layer1"
     showgrid="false"
     inkscape:window-width="1875"
     inkscape:window-height="1056"
     inkscape:window-x="45"
     inkscape:window-y="24"
     inkscape:window-maximized="1" />
  <defs
     id="defs4714" />
  <metadata
     id="metadata4717">
    <rdf:RDF>
      <cc:Work
         rdf:about="">
        <dc:format>image/svg+xml</dc:format>
        <dc:type
           rdf:resource="http://purl.org/dc/dcmitype/StillImage" />
      </cc:Work>
    </rdf:RDF>
  </metadata>
  <g
     id="layer1"
     inkscape:groupmode="layer"
     inkscape:label="Layer 1">
    <path
       style="fill:#800080;fill-opacity:1"
       d="m 0,13.268507 c 0,0 1.1722581,-4.4920777 2.4893002,-6.3423041 C 3.8357599,5.0346496 5.79424,3.5974416 7.7826807,2.3986793 9.6264832,1.2871144 13.786812,0.01811928 13.786812,0.01811928 l 67.748428,0.1171352 c 0,0 4.856841,1.23043922 6.915484,2.57719372 1.902537,1.24463 3.537888,2.9736541 4.742505,4.9017736 1.4876,2.3810629 2.872075,7.9178862 2.872075,7.9178862 l -0.03006,68.013387 c 0,0 -1.253884,3.517476 -2.270384,5.062512 -1.226068,1.863572 -2.737117,3.595866 -4.523591,4.931776 -1.529081,1.143434 -5.143633,2.520479 -5.143633,2.520479 l -71.266826,0.07232 c 0,0 -4.684721,-1.144751 -6.672754,-2.429633 C 4.6986787,92.759745 3.4371639,91.445288 2.5200372,89.969387 1.2852671,87.982313 0.1822852,83.351759 0.1822852,83.351759 Z"
       id="rect4749"
       inkscape:connector-curvature="0"
       sodipodi:nodetypes="cssccssccssccaacc" />
    <text
       xml:space="preserve"
       style="font-style:normal;font-variant:normal;font-weight:normal;font-stretch:normal;font-size:133.33332825px;line-height:1.25;font-family:'Abyssinica SIL';-inkscape-font-specification:'Abyssinica SIL';letter-spacing:0px;word-spacing:0px;fill:#e6e6e6;fill-opacity:1;stroke:none"
       x="21.743532"
       y="80.708809"
       id="text4753"><tspan
         sodipodi:role="line"
         id="tspan4751"
         x="21.743532"
         y="80.708809"
         style="font-style:normal;font-variant:normal;font-weight:normal;font-stretch:normal;font-size:133.33332825px;line-height:2.25;font-family:'Abyssinica SIL';-inkscape-font-specification:'Abyssinica SIL';fill:#e6e6e6">s</tspan></text>
  </g>
</svg>
